<?xml version="1.0" standalone="no"?>
<!DOCTYPE svg PUBLIC "-//W3C//DTD SVG 20010904//EN"
 "http://www.w3.org/TR/2001/REC-SVG-20010904/DTD/svg10.dtd">
<svg version="1.0" xmlns="http://www.w3.org/2000/svg"
 width="450.000000pt" height="450.000000pt" viewBox="0 0 450.000000 450.000000"
 preserveAspectRatio="xMidYMid meet">
<metadata>
Created by potrace 1.11, written by Peter Selinger 2001-2013
</metadata>
<g transform="translate(0.000000,450.000000) scale(0.100000,-0.100000)"
fill="#000000" stroke="none">
<path d="M2075 4464 c-583 -61 -1055 -286 -1440 -685 -177 -184 -297 -356
-406 -584 -146 -306 -209 -593 -209 -948 1 -326 58 -601 189 -894 264 -597
812 -1063 1451 -1237 174 -47 322 -68 525 -73 345 -10 600 32 896 148 536 209
986 633 1220 1149 381 843 203 1816 -451 2470 -183 183 -387 328 -620 439
-207 98 -411 161 -640 196 -101 15 -432 28 -515 19z m600 -1428 c17 -11 25
-25 25 -46 0 -17 -42 -110 -104 -232 -87 -168 -462 -954 -574 -1200 -39 -87
-63 -103 -145 -94 -64 6 -109 30 -115 60 -2 9 64 153 147 319 83 166 243 500
356 742 114 242 216 448 228 459 18 15 34 17 89 14 38 -3 78 -12 93 -22z
m-1017 -381 c13 -27 16 -142 6 -170 -8 -19 -57 -44 -327 -165 -114 -51 -204
-96 -200 -100 4 -4 122 -58 261 -120 143 -64 257 -121 262 -131 14 -25 12
-143 -2 -175 -10 -22 -17 -25 -43 -21 -42 7 -806 352 -816 369 -11 17 -11 149
0 166 10 17 800 372 827 372 13 0 25 -10 32 -25z m1654 -156 c211 -94 390
-178 398 -186 11 -10 15 -35 15 -88 0 -53 -4 -78 -15 -89 -21 -20 -796 -366
-820 -366 -29 0 -43 36 -44 117 -1 60 2 76 19 92 11 10 134 70 273 132 138 62
251 113 250 115 -2 1 -115 52 -253 114 -137 61 -259 120 -270 131 -17 16 -20
32 -19 92 1 92 15 121 54 113 16 -3 201 -82 412 -177z"/>
</g>
</svg>
