<?xml version="1.0" encoding="UTF-8"?>
<svg xmlns="http://www.w3.org/2000/svg" xmlns:xlink="http://www.w3.org/1999/xlink" width="40pt" height="10pt"
     viewBox="0 0 40 20" version="1.1">
<g id="surface1">
<path style=" stroke:none;fill-rule:nonzero;fill:rgb(0%,0%,0%);fill-opacity:1;" d="M 19.851562 8.445312 C 19.5625 8.652344 19.449219 9.097656 19.589844 9.492188 C 19.652344 9.675781 19.800781 9.890625 19.929688 9.988281 L 20.003906 10.046875 L 20.171875 9.871094 C 20.574219 9.4375 20.558594 8.734375 20.136719 8.445312 C 20.015625 8.359375 19.972656 8.363281 19.851562 8.445312 Z M 20.132812 8.507812 C 20.175781 8.539062 20.253906 8.636719 20.300781 8.714844 C 20.378906 8.84375 20.386719 8.894531 20.386719 9.128906 C 20.386719 9.355469 20.375 9.417969 20.300781 9.566406 C 20.253906 9.660156 20.167969 9.789062 20.105469 9.847656 L 19.996094 9.953125 L 19.886719 9.847656 C 19.824219 9.789062 19.738281 9.660156 19.691406 9.566406 C 19.617188 9.417969 19.605469 9.355469 19.605469 9.128906 C 19.605469 8.894531 19.613281 8.84375 19.691406 8.714844 C 19.785156 8.554688 19.910156 8.441406 19.996094 8.441406 C 20.027344 8.441406 20.085938 8.46875 20.132812 8.507812 Z M 20.132812 8.507812 "/>
<path style=" stroke:none;fill-rule:nonzero;fill:rgb(0%,0%,0%);fill-opacity:1;" d="M 15.429688 9.34375 C 15.078125 9.414062 14.714844 9.707031 14.550781 10.058594 C 14.457031 10.253906 14.449219 10.292969 14.449219 10.597656 C 14.449219 10.886719 14.460938 10.949219 14.53125 11.097656 C 14.644531 11.339844 14.753906 11.457031 14.960938 11.558594 C 15.113281 11.632812 15.175781 11.644531 15.402344 11.644531 C 15.738281 11.644531 15.914062 11.578125 16.085938 11.398438 C 16.292969 11.171875 16.332031 10.902344 16.195312 10.632812 C 16.085938 10.410156 15.929688 10.308594 15.671875 10.292969 C 15.519531 10.28125 15.453125 10.292969 15.339844 10.355469 C 15.175781 10.4375 15.078125 10.585938 15.109375 10.707031 L 15.132812 10.789062 L 15.21875 10.683594 C 15.332031 10.542969 15.554688 10.484375 15.757812 10.539062 C 16.101562 10.632812 16.230469 11.09375 15.988281 11.367188 C 15.835938 11.546875 15.675781 11.609375 15.398438 11.609375 C 15.191406 11.613281 15.148438 11.601562 15.007812 11.519531 C 14.726562 11.34375 14.570312 10.953125 14.597656 10.496094 C 14.640625 9.847656 15.238281 9.371094 15.882812 9.476562 C 16.277344 9.542969 16.601562 9.699219 17.210938 10.125 C 17.859375 10.578125 18.300781 10.8125 18.871094 10.996094 C 19.710938 11.273438 20.285156 11.273438 21.121094 10.996094 C 21.691406 10.808594 22.136719 10.574219 22.78125 10.125 C 23.390625 9.699219 23.714844 9.542969 24.109375 9.476562 C 24.753906 9.371094 25.351562 9.847656 25.394531 10.496094 C 25.421875 10.953125 25.265625 11.34375 24.984375 11.519531 C 24.84375 11.601562 24.800781 11.613281 24.59375 11.609375 C 24.316406 11.609375 24.15625 11.546875 24.003906 11.367188 C 23.761719 11.09375 23.890625 10.632812 24.234375 10.539062 C 24.4375 10.484375 24.660156 10.542969 24.773438 10.683594 L 24.859375 10.789062 L 24.882812 10.707031 C 24.914062 10.585938 24.816406 10.4375 24.652344 10.355469 C 24.539062 10.292969 24.472656 10.28125 24.320312 10.292969 C 24.0625 10.308594 23.90625 10.410156 23.796875 10.632812 C 23.660156 10.902344 23.699219 11.171875 23.90625 11.398438 C 24.078125 11.578125 24.253906 11.644531 24.589844 11.644531 C 25.027344 11.644531 25.28125 11.484375 25.460938 11.097656 C 25.53125 10.949219 25.542969 10.886719 25.542969 10.597656 C 25.542969 10.292969 25.535156 10.253906 25.441406 10.058594 C 25.316406 9.792969 25.097656 9.574219 24.835938 9.449219 C 24.285156 9.183594 23.660156 9.34375 22.816406 9.964844 C 21.953125 10.597656 21.292969 10.917969 20.511719 11.082031 C 19.878906 11.214844 19.183594 11.089844 18.355469 10.695312 C 17.933594 10.492188 17.707031 10.351562 17.175781 9.964844 C 16.46875 9.449219 15.914062 9.25 15.429688 9.34375 Z M 15.429688 9.34375 "/>
<path style=" stroke:none;fill-rule:nonzero;fill:rgb(0%,0%,0%);fill-opacity:1;" d="M 18.125 9.476562 C 18.050781 9.492188 17.984375 9.507812 17.976562 9.511719 C 17.972656 9.519531 18.039062 9.574219 18.132812 9.640625 C 18.332031 9.777344 18.523438 9.980469 18.800781 10.339844 C 19.136719 10.769531 19.488281 10.949219 19.996094 10.949219 C 20.527344 10.949219 20.847656 10.777344 21.242188 10.273438 C 21.511719 9.929688 21.691406 9.75 21.902344 9.609375 C 22.03125 9.527344 22.03125 9.523438 21.957031 9.496094 C 21.832031 9.449219 21.394531 9.433594 21.203125 9.46875 C 20.957031 9.511719 20.816406 9.589844 20.511719 9.820312 C 20.375 9.921875 20.203125 10.039062 20.128906 10.074219 L 19.996094 10.140625 L 19.863281 10.074219 C 19.789062 10.039062 19.617188 9.921875 19.480469 9.820312 C 19.34375 9.714844 19.175781 9.601562 19.105469 9.566406 C 18.863281 9.449219 18.449219 9.410156 18.125 9.476562 Z M 18.628906 9.503906 C 18.902344 9.546875 19.105469 9.65625 19.414062 9.921875 C 19.566406 10.058594 19.761719 10.199219 19.84375 10.242188 L 19.996094 10.316406 L 20.148438 10.242188 C 20.230469 10.199219 20.425781 10.058594 20.578125 9.921875 C 20.886719 9.65625 21.089844 9.546875 21.363281 9.5 C 21.523438 9.476562 21.847656 9.488281 21.910156 9.527344 C 21.925781 9.535156 21.863281 9.589844 21.769531 9.652344 C 21.679688 9.714844 21.429688 9.945312 21.214844 10.164062 C 21 10.378906 20.769531 10.589844 20.699219 10.621094 C 20.253906 10.847656 19.738281 10.847656 19.292969 10.621094 C 19.222656 10.589844 18.992188 10.378906 18.777344 10.164062 C 18.5625 9.945312 18.3125 9.714844 18.21875 9.652344 C 18.042969 9.535156 18.042969 9.519531 18.230469 9.496094 C 18.402344 9.472656 18.449219 9.472656 18.628906 9.503906 Z M 13.886719 10.410156 C 13.730469 10.472656 13.679688 10.652344 13.761719 10.8125 C 13.855469 10.988281 14.152344 10.996094 14.242188 10.824219 C 14.375 10.574219 14.140625 10.308594 13.886719 10.410156 Z M 14.089844 10.558594 C 14.148438 10.605469 14.15625 10.636719 14.140625 10.699219 C 14.117188 10.808594 13.988281 10.84375 13.902344 10.769531 C 13.824219 10.699219 13.824219 10.644531 13.902344 10.566406 C 13.980469 10.488281 14.003906 10.488281 14.089844 10.558594 Z M 25.8125 10.457031 C 25.644531 10.597656 25.683594 10.84375 25.886719 10.929688 C 26.078125 11.011719 26.277344 10.867188 26.277344 10.648438 C 26.277344 10.535156 26.152344 10.410156 26.023438 10.390625 C 25.9375 10.375 25.894531 10.386719 25.8125 10.457031 Z M 26.089844 10.566406 C 26.167969 10.644531 26.167969 10.699219 26.089844 10.769531 C 26.003906 10.84375 25.875 10.808594 25.851562 10.699219 C 25.835938 10.636719 25.84375 10.605469 25.902344 10.558594 C 25.988281 10.488281 26.011719 10.488281 26.089844 10.566406 Z M 0.0507812 10.574219 C -0.0234375 10.632812 -0.00390625 10.726562 0.09375 10.777344 C 0.15625 10.808594 1.507812 10.8125 6.804688 10.808594 C 13.332031 10.800781 13.441406 10.800781 13.484375 10.742188 C 13.542969 10.664062 13.542969 10.644531 13.480469 10.585938 C 13.433594 10.542969 12.78125 10.535156 6.765625 10.535156 C 1.308594 10.535156 0.0976562 10.542969 0.0507812 10.574219 Z M 26.511719 10.585938 C 26.449219 10.644531 26.449219 10.664062 26.507812 10.742188 C 26.550781 10.800781 26.660156 10.800781 33.1875 10.808594 C 40.203125 10.816406 39.960938 10.820312 39.984375 10.675781 C 40.015625 10.527344 40.308594 10.535156 33.226562 10.535156 C 27.210938 10.535156 26.558594 10.542969 26.511719 10.585938 Z M 17.160156 10.792969 C 16.996094 10.851562 16.714844 11.082031 16.714844 11.15625 C 16.714844 11.171875 16.75 11.230469 16.789062 11.277344 C 16.863281 11.359375 16.878906 11.363281 17.144531 11.359375 C 17.378906 11.359375 17.476562 11.339844 17.824219 11.230469 C 18.050781 11.15625 18.308594 11.089844 18.402344 11.078125 C 18.675781 11.046875 18.6875 11.023438 18.460938 10.917969 C 18.035156 10.714844 17.492188 10.660156 17.160156 10.792969 Z M 18.308594 10.925781 L 18.480469 10.980469 L 18.230469 11.019531 C 18.09375 11.042969 17.835938 11.09375 17.652344 11.144531 C 17.304688 11.234375 16.988281 11.257812 16.929688 11.199219 C 16.859375 11.128906 17.050781 10.980469 17.324219 10.886719 C 17.496094 10.832031 18.082031 10.855469 18.308594 10.925781 Z M 21.882812 10.78125 C 21.777344 10.8125 21.609375 10.875 21.511719 10.925781 C 21.308594 11.023438 21.320312 11.046875 21.589844 11.078125 C 21.683594 11.089844 21.945312 11.15625 22.167969 11.230469 C 22.515625 11.339844 22.613281 11.359375 22.847656 11.359375 C 23.113281 11.363281 23.128906 11.359375 23.203125 11.277344 C 23.242188 11.230469 23.277344 11.171875 23.277344 11.15625 C 23.277344 11.078125 22.996094 10.851562 22.828125 10.789062 C 22.601562 10.703125 22.164062 10.699219 21.882812 10.78125 Z M 22.796875 10.9375 C 22.992188 11.027344 23.117188 11.144531 23.0625 11.199219 C 23 11.261719 22.683594 11.234375 22.289062 11.132812 C 22.082031 11.078125 21.824219 11.027344 21.71875 11.015625 C 21.582031 11 21.535156 10.984375 21.566406 10.964844 C 21.808594 10.832031 22.519531 10.816406 22.796875 10.9375 Z M 22.796875 10.9375 "/>
</g>
</svg>
