<svg width="16" height="16" viewBox="0 0 16 16" fill="none" xmlns="http://www.w3.org/2000/svg"><path d="M3.231.001c.273-.016.52.146.708.432l1.814 3.402a.979.979 0 01-.202 1.123l-.831.821a.4.4 0 00-.086.234c.319 1.22 1.285 2.345 2.138 3.118.853.774 1.77 1.821 2.96 2.07.147.04.327.054.432-.042l.966-.972c.333-.25.815-.371 1.171-.167h.016l3.274 1.91c.48.298.53.874.187 1.224l-2.255 2.212c-.333.337-.776.45-1.206.451-1.9-.056-3.697-.978-5.172-1.926-2.422-1.742-4.643-3.902-6.038-6.512C.572 6.285-.056 4.89.004 3.667c.005-.46.131-.91.458-1.206L2.717.231c.176-.147.35-.22.514-.23z" fill="#292839"/></svg>