<svg width="143" height="40" viewBox="0 0 143 40" fill="none" xmlns="http://www.w3.org/2000/svg"><path fill-rule="evenodd" clip-rule="evenodd" d="M56.704 23.145h-8.437l-1.663 3.95h-3.23l7.593-17.07h3.086l7.617 17.07h-3.278l-1.688-3.95zm-1.036-2.487l-3.182-7.462-3.158 7.462h6.34zm13.764 6.608c-1.333 0-2.53-.284-3.591-.853a6.226 6.226 0 01-2.483-2.378c-.595-1.016-.892-2.166-.892-3.45 0-1.285.297-2.43.892-3.439a6.273 6.273 0 012.47-2.365c1.053-.57 2.254-.854 3.604-.854 1.27 0 2.383.26 3.34.78a5.037 5.037 0 012.156 2.244l-2.314 1.366c-.37-.602-.831-1.053-1.386-1.354a3.756 3.756 0 00-1.82-.45c-1.125 0-2.057.37-2.796 1.109-.74.74-1.109 1.727-1.109 2.963 0 1.235.366 2.223 1.097 2.963.731.74 1.667 1.11 2.808 1.11a3.75 3.75 0 001.82-.452c.555-.3 1.017-.752 1.386-1.353l2.314 1.365a5.248 5.248 0 01-2.181 2.256c-.956.528-2.061.793-3.315.793zm15.838-.877a3.532 3.532 0 01-1.29.658c-.506.146-1.04.22-1.603.22-1.414 0-2.507-.374-3.278-1.122-.772-.748-1.157-1.837-1.157-3.268V16.61H75.82v-2.44h2.12v-2.975h3.014v2.975h3.447v2.439h-3.447v6.194c0 .634.153 1.118.458 1.45.305.334.747.5 1.326.5.675 0 1.237-.178 1.687-.536l.844 2.17zm2.483-12.316h3.013v13.023h-3.013V14.073zm1.519-2.145c-.547 0-1.005-.175-1.374-.525a1.722 1.722 0 01-.555-1.304c0-.52.185-.956.555-1.305.37-.35.827-.524 1.374-.524.546 0 1.004.166 1.374.5.37.333.554.751.554 1.255 0 .537-.18.988-.542 1.354-.362.366-.824.549-1.386.549zm17.5 2.145l-5.52 13.023h-3.11l-5.52-13.023h3.134l4.002 9.657 4.122-9.657h2.892zm1.881 0h3.013v13.023h-3.013V14.073zm1.519-2.145c-.547 0-1.005-.175-1.375-.525a1.724 1.724 0 01-.554-1.304c0-.52.185-.956.554-1.305.37-.35.828-.524 1.375-.524.545 0 1.004.166 1.374.5.37.333.554.751.554 1.255 0 .537-.181.988-.542 1.354-.362.366-.824.549-1.386.549zm13.186 14.46a3.535 3.535 0 01-1.291.659c-.505.146-1.04.22-1.602.22-1.414 0-2.507-.374-3.278-1.122-.772-.748-1.157-1.837-1.157-3.268V16.61h-2.122v-2.44h2.122v-2.975h3.013v2.975h3.447v2.439h-3.447v6.194c0 .634.152 1.118.458 1.45.305.334.747.5 1.326.5.674 0 1.237-.178 1.687-.536l.844 2.17zm2.483-12.315h3.012v13.023h-3.012V14.073zm1.518-2.145c-.547 0-1.004-.175-1.374-.525a1.72 1.72 0 01-.554-1.304c0-.52.184-.956.554-1.305.37-.35.827-.524 1.374-.524.546 0 1.004.166 1.374.5.369.333.555.751.555 1.255 0 .537-.181.988-.543 1.354-.361.366-.823.549-1.386.549zm9.425 15.338c-1.044 0-2.065-.138-3.061-.414-.997-.276-1.791-.626-2.387-1.049l1.157-2.316c.579.39 1.274.703 2.085.939a8.585 8.585 0 002.399.353c1.8 0 2.7-.48 2.7-1.439 0-.455-.229-.772-.686-.95-.459-.18-1.194-.35-2.207-.513-1.06-.162-1.924-.35-2.591-.56a3.983 3.983 0 01-1.736-1.11c-.49-.529-.735-1.264-.735-2.207 0-1.236.51-2.223 1.531-2.963 1.021-.74 2.399-1.11 4.134-1.11.884 0 1.767.102 2.652.305.884.203 1.607.476 2.169.817l-1.157 2.317c-1.093-.65-2.322-.976-3.688-.976-.884 0-1.555.134-2.013.403-.458.268-.687.622-.687 1.06 0 .488.245.834.735 1.037.49.203 1.249.394 2.278.573 1.028.162 1.873.35 2.531.56.66.212 1.226.57 1.699 1.074.475.504.712 1.22.712 2.146 0 1.22-.522 2.195-1.567 2.926-1.044.732-2.467 1.098-4.267 1.098z" fill="#fff"/><path opacity=".5" d="M20.662 20.902h-.765V34.45h.765V20.902zM33.208 4.373l.541.547-11.093 11.222-.54-.547L33.207 4.373zM18.649 19.101l.541.548L4.31 34.703l-.542-.548 14.881-15.054zM9.604 6.072l8.117 8.211-.54.548-8.118-8.212.541-.547zm12.861 12.817L33.558 30.11l-.541.547-11.093-11.222.541-.547z" fill="#fff"/><path d="M35.394 7.355c2.007 0 3.635-1.647 3.635-3.678C39.029 1.647 37.4 0 35.394 0c-2.008 0-3.635 1.646-3.635 3.677s1.627 3.678 3.635 3.678zM20.471 39.482c2.008 0 3.635-1.646 3.635-3.677 0-2.03-1.628-3.677-3.635-3.677-2.008 0-3.635 1.646-3.635 3.677s1.627 3.677 3.635 3.677zM3.635 37.934c2.008 0 3.635-1.646 3.635-3.677S5.643 30.58 3.635 30.58 0 32.225 0 34.257c0 2.03 1.627 3.677 3.635 3.677zM8.8 8.129c1.268 0 2.296-1.04 2.296-2.323 0-1.282-1.027-2.322-2.295-2.322s-2.296 1.04-2.296 2.322C6.505 7.09 7.533 8.13 8.8 8.13zm23.724 23.999c1.268 0 2.296-1.04 2.296-2.323 0-1.282-1.028-2.322-2.296-2.322-1.268 0-2.296 1.04-2.296 2.322 0 1.283 1.028 2.323 2.296 2.323zm-12.053-8.903c2.853 0 5.166-2.34 5.166-5.226s-2.313-5.225-5.166-5.225-5.166 2.34-5.166 5.225c0 2.886 2.313 5.226 5.166 5.226z" fill="#fff"/></svg>